<?xml version="1.0" encoding="UTF-8"?>
<svg id="Layer_2" data-name="Layer 2" xmlns="http://www.w3.org/2000/svg" viewBox="0 0 92.76 112.34">
  <defs>
    <style>
      .cls-1 {
        fill: #1a2133;
      }
    </style>
  </defs>
  <g id="Layer_1-2" data-name="Layer 1">
    <path class="cls-1" d="m40.25,71l5.77,5.71,3.05-3.1-14.42-14.28-2.5-2.5-10.2,10.23,3.51,2.74,6.71-6.78,4.95,4.9-15.7,15.67-15.9-16.03c-1.17-1.21-1.15-3.13.04-4.31l23.92-23.98-3.06-3.12L2.07,60.51c-2.76,2.76-2.76,7.25,0,10.01l19.25,19.46,1.1-1.13,17.84-17.86Z"/>
    <polygon class="cls-1" points="67.23 37.99 61.68 43.53 56.66 38.53 62.2 32.96 59.11 29.87 53.54 35.42 47.48 29.39 48.52 36.67 61.67 49.76 62.18 49.25 62.19 49.26 64.39 47.04 64.8 46.64 64.8 46.63 70.32 41.08 67.23 37.99"/>
    <polygon class="cls-1" points="49.78 61.66 35.43 47.38 32.31 50.5 46.65 64.78 49.78 61.66"/>
    <path class="cls-1" d="m58.2,70.04l-3.13,3.13,12.89,12.84-5.83,5.71-11.19-11.14-.04.04-1.61-1.61-19.31,19.27,1.66,1.63-.03.03,11.31,11.11c1.75,1.72,4.55,1.7,6.28-.03h0,0s9.72-9.74,9.72-9.74l-3.15-3.23-8.88,9.04c-.46.47-1.21.47-1.67.01l-8.98-8.82,13.08-13.1,9.67,9.63-.03.03,2.95,2.88.27.26h0s0,0,0,0l11.28-11.25-.03-.03.75-.75-15.99-15.93Z"/>
    <path class="cls-1" d="m13.38,25.33h.4l1.42-1.08c2.37-1.81,4.89-3.07,7.96-2.85,3.52.25,7.03,1.43,10.16,1.61,2.45.14,4.88-.2,7.21-.97l-11.79,11.93,24.31,24.41,3.13-3.13-13.17-13.23,3.46-3.65-.83-5.13-5.68,5.72-5.03-5.05,7.42-7.75c2.98-3.06,5.42-1.28,5.42-1.28l5.2,4.96,3.13-3.13-4.09-4.11c1.95.42,3.95.54,5.96.32,3.19-.34,6.41-1.42,9.63-1.54,1.97-.07,3.96.48,5.64,1.49,1.22.73,2.3,1.54,3.31,2.44h.45c-.03-.89.08-1.84.53-2.66.56-1.01,1.61-1.31,2.81-1.24-3.17-2.65-7.92-3.79-11.91-3.65-2.56.09-4.91.76-7.15,1.93-2.24,1.17-4.82,1.46-7.3,1.26-1.81-.14-3.54-.3-5.36-.83l.97-.38c2.88-1.13,5.58-2.72,7.7-4.99,2.11-2.26,3.5-5.03,3.9-8.09.2-1.56.12-3.04-.43-4.47-.48-1.27-1.57-2.05-2.94-2.2-2.28-.25-4.55,1.59-6.05,3.17-2.21,2.35-3.62,4.39-4.4,7.58-.46,1.87-.74,3.73-.63,5.74.76-3.86,2.28-7.35,4.98-10.2,1.07-1.13,2.94-2.96,4.36-3.51.76-.3,1.55-.02,1.95.74.41.78.46,1.71.45,2.64-.03,2.8-1.31,5.9-3.27,7.93-2.17,2.25-5.23,4.06-8.18,5.64-1.17-.15-2.25,0-3.15.25-3.75-1.97-8.33-4.59-10.33-8.1-1.21-2.25-2.31-6.01-1.13-8.39.27-.55.85-.88,1.44-.81.86.1,1.46.58,2.11,1.09,4.22,3.31,6.68,7.32,7.66,12.66.1-.7.07-1.4,0-2.14-.23-2.38-.69-4.67-1.78-6.82-.73-1.44-1.7-2.63-2.76-3.85C37.65,2.02,35.23-.07,32.88,0c-.96.03-1.92.43-2.56,1.13-.74.82-.98,1.92-1.1,3-.52,4.68,1.97,9.22,5.52,12.17,2.08,1.73,4.39,2.85,7.02,3.85-1.7.48-3.31.67-4.99.81-1.12.09-2.18.15-3.29-.03-1.78-.08-3.35-.71-4.91-1.48-2.72-1.34-5.35-1.81-8.39-1.64-3.4.19-7.33,1.33-10.04,3.58.6.09,1.18.07,1.7.3,1.38.62,1.63,2.37,1.54,3.64Z"/>
    <path class="cls-1" d="m78.53,49.32l-.03.03h0s-10.68,10.66-10.68,10.66l3.25,3.33,7.46-7.73,8.67,8.81c.65.66.65,1.73-.02,2.39l-9.79,9.65-19.37-19.46-3.13,3.13,22.57,22.67,3.13-3.13-.03-.03,10.9-10.88h0c1.73-1.73,1.74-4.53.02-6.27l-12.96-13.16Z"/>
    <rect class="cls-1" x="28.66" y="43.5" width="4.5" height="4.5"/>
    <rect class="cls-1" x="50.27" y="65.41" width="4.5" height="4.5"/>
    <rect class="cls-1" x="67.35" y="47.28" width="4.5" height="4.5"/>
    <polygon class="cls-1" points="30.78 84.63 30.78 89.13 35.27 89.13 35.27 84.7 39.71 84.7 39.71 80.2 35.21 80.2 35.21 84.63 30.78 84.63"/>
    <path class="cls-1" d="m18.43,58.79c.56.46,2.21.09,2.56-.63,1.15-.14,2.3.39,3.3.94.42.24.84.38,1.29.26-.15-.38-.25-.65-.37-.81l-.87-1.15-1.3-1.72c-.31-.41-1.1-1.7-.74-2.17.08-.1.34-.21.47-.21h1.13c-.13-.54-.38-1.05-.89-1.38-.4-.25-2.1-.02-2.1.95,0,.73.39,1.41.8,2l1.28,1.83c.26.37.51.73.68,1.11-1.34-.6-4.94-1.84-5.83-.43-.31.49.21,1.09.59,1.4Z"/>
    <path class="cls-1" d="m42.86,97.1c-.31.49.21,1.09.59,1.4.56.46,2.21.09,2.56-.63,1.15-.14,2.3.39,3.3.94.42.24.84.38,1.29.26-.15-.38-.25-.65-.37-.81l-.87-1.15-1.3-1.72c-.31-.41-1.1-1.7-.74-2.17.08-.1.34-.21.47-.21h1.13c-.13-.54-.38-1.05-.89-1.38-.4-.25-2.1-.02-2.1.95,0,.73.39,1.41.8,2l1.28,1.83c.26.37.51.73.68,1.11-1.34-.6-4.94-1.84-5.83-.43Z"/>
    <path class="cls-1" d="m17.96,64.81l-.87.31c-.3-.73-.65-1.28-1.31-1.7.09-1.05-.57-1.96-1.37-2.57-.37-.28-.9-.19-1.16.21-.36.54-.44,1.2-.41,1.86.06,1.15.29,2.27.6,3.38.23.83,1.04,1.97,1.79,1.64.26-.11.48-.36.49-.66l.02-1.02,1.22-.22c.49,2.18-.5,5.96-1.14,8.15-.02.06.17,0,.2-.05,1.11-2.27,1.92-5.71,1.33-8.19.24-.1.43-.18.64-.28.29-.14.25-.78-.03-.86Zm-2.84,1.9c-.12.22-.35.47-.62.37-.38-.15-.6-.54-.7-.93-.24-.96-.92-4.17.33-4.6.7-.24,1.29,1.17,1.36,1.79-.5.03-.76.4-.82.87-.13,1.11.85,1.73.44,2.5Zm.22-1.48c-.26-.15-.13-.73.05-.9.32-.31.69-.17.99.09.12.23.2.41.32.74-.45.12-.94.31-1.36.07Z"/>
    <path class="cls-1" d="m78.66,69.37c.27.1.9-.82,1.09-1.09.96-1.38,1.31-1.94,1.21-3.57-.04-.6-.07-1.19-.36-1.73-.14-.26-.47-.57-.78-.46-.98.33-2.26,1.32-3.08,2.04-.24.21-.45.59-.64.85,0,.32.15,2.61.52,2.53.63-.69,1.87-1.84,2.59-2.35.23-.16.42-.34.77-.34-.43,1.31-.96,2.72-1.39,3.82-.04.1,0,.27.06.29Z"/>
  </g>
</svg>