<?xml version="1.0" encoding="UTF-8"?>
<svg id="Layer_2" data-name="Layer 2" xmlns="http://www.w3.org/2000/svg" viewBox="0 0 239.62 54.74">
  <defs>
    <style>
      .cls-1 {
        fill: #1a2133;
      }
    </style>
  </defs>
  <g id="Layer_1-2" data-name="Layer 1">
    <path class="cls-1" d="m7.07,3.55c.54-.53,1.19-.8,1.94-.8h2.75c1.6,0,2.51.91,2.72,2.72h2.75c-.21-3.65-2.03-5.47-5.47-5.47h-5.49c-1.53,0-2.83.54-3.88,1.63-1.06,1.09-1.59,2.37-1.59,3.84v13.71c0,1.5.54,2.78,1.61,3.86,1.07,1.07,2.36,1.61,3.86,1.61h5.49c1.31,0,2.55-.46,3.72-1.37,1.17-.92,1.75-2.28,1.75-4.1v-8.22h-8.22v2.72h2.75v5.49c-.09,1.73-1,2.64-2.75,2.72-.75,0-1.4-.27-1.94-.8-.54-.53-.81-1.17-.81-1.93V5.47c0-.74.27-1.38.81-1.92Z"/>
    <rect class="cls-1" x="30.68" width="5.48" height="24.65"/>
    <polygon class="cls-1" points="49.65 24.65 55.12 24.65 55.12 13.69 60.61 13.69 60.61 10.96 55.12 10.96 55.12 2.75 63.33 2.75 63.33 0 49.65 0 49.65 24.65"/>
    <polygon class="cls-1" points="71.34 2.75 76.81 2.75 76.81 24.65 82.3 24.65 82.3 2.75 87.77 2.75 87.77 0 71.34 0 71.34 2.75"/>
    <polygon class="cls-1" points="114.53 15.07 122.74 24.65 128.24 24.65 117.27 12.32 128.24 0 123.38 0 114.53 10.07 114.53 0 109.06 0 109.06 24.65 114.53 24.65 114.53 15.07"/>
    <polygon class="cls-1" points="149.93 10.96 144.43 10.96 144.43 0 138.96 0 138.96 24.65 144.43 24.65 144.43 13.69 149.93 13.69 149.93 24.65 155.4 24.65 155.4 0 149.93 0 149.93 10.96"/>
    <path class="cls-1" d="m171.59,13.69h5.49v10.96h5.47V5.47c0-1.49-.54-2.77-1.61-3.85-1.07-1.08-2.36-1.62-3.86-1.62h-5.49c-1.5,0-2.78.54-3.86,1.61-1.07,1.07-1.61,2.36-1.61,3.86v19.18h5.47v-10.96Zm0-8.22c0-.74.27-1.38.81-1.92.54-.53,1.19-.8,1.94-.8s1.39.27,1.93.8c.54.54.82,1.17.82,1.92v5.49h-5.49v-5.49Z"/>
    <polygon class="cls-1" points="209.72 13.69 194.53 0 193.28 0 193.28 24.65 196.03 24.65 196.03 10.96 211.21 24.65 212.46 24.65 212.46 0 209.72 0 209.72 13.69"/>
    <path class="cls-1" d="m238.01,1.62c-1.07-1.08-2.36-1.62-3.86-1.62h-5.49c-1.5,0-2.78.54-3.86,1.61s-1.61,2.36-1.61,3.86v19.18h5.47v-10.96h5.49v10.96h5.47V5.47c0-1.49-.54-2.77-1.61-3.85Zm-3.86,9.35h-5.49v-5.49c0-.74.27-1.38.81-1.92.54-.53,1.19-.8,1.94-.8s1.39.27,1.93.8c.54.54.82,1.17.82,1.92v5.49Z"/>
    <path class="cls-1" d="m9.14,41.15c-.21,0-.41.12-.51.33-.75,1.62-1.68,2.42-2.24,2.42s-1.02-.96-1.02-2.76c0-.42.06-1.17.06-1.28,0-.1-.04-.22-.11-.32-.64-.91-1.33-1.16-1.89-1.16-.12,0-.24.02-.35.03-1.48.28-2.59,2.15-2.91,3.4-.11.43-.16.86-.16,1.26,0,1.62.8,2.7,1.83,2.7,1.16,0,1.95-1.18,2.65-2.56.41,1.44,1.26,1.81,1.9,1.81,1.14,0,2.36-1.1,3.28-3.08.03-.08.05-.15.05-.23,0-.33-.28-.57-.58-.57Zm-6.01,2.19c-.52.92-1,1.3-1.3,1.3-.4,0-.7-.78-.7-1.57,0-.3.04-.64.13-.98.28-1.08,1.19-2.42,2.01-2.56.03,0,.08-.02.15-.02.19,0,.49.08.86.53,0,.36-.38,1.93-1.15,3.3Z"/>
    <path class="cls-1" d="m28.28,41.04c-.4,0-.58.41-.82.84-.6,1.03-1.41,2.44-2.37,2.44-.74,0-.92-1.43-.92-2.33v-.59c0-.87-.08-1.99-1.01-2.41-.18-.08-.35-.12-.53-.12-.89,0-1.59.91-2.13,2.85-.02-.41-.03-.86-.03-1.32l.02-1.06c.14-3.72,1.19-8.09,1.19-8.14,0-.04.02-.09.02-.14,0-.33-.27-.56-.57-.56-.26,0-.48.17-.55.43-.04.19-1.09,4.53-1.23,8.36-.02.42-.02.83-.02,1.21,0,3.17.41,5.21.44,5.3.05.27.28.45.55.45h.04c.28-.02.51-.24.52-.52.03-.45.22-1.76.52-3.03.54-2.27,1.1-2.7,1.22-2.7l.07.02c.31.14.34.77.34,1.32v.66c0,.9.17,1.72.37,2.19.44,1.06,1.18,1.26,1.68,1.26.72,0,1.41-.36,2.06-1.08.71-.81,1.26-1.93,1.61-2.47.06-.09.09-.2.09-.29,0-.33-.26-.58-.57-.58Z"/>
    <path class="cls-1" d="m36.26,41.14c-.13,0-.27.04-.37.15-.21.18-.43.27-.69.27-.68,0-1.53-.64-2-1.46-.09-.19-.15-.31-.16-.32-.1-.19-.29-.3-.5-.3-.05,0-.11,0-.16.03,0-.04.02-.09.02-.14,0-.31-.28-.57-.58-.57-.05,0-.1,0-.15.03-1.48.44-2.36,2.2-2.36,4.04s.83,2.94,2.09,2.94c1.55,0,2.41-1.94,2.41-3.52.51.29.97.41,1.42.41.53,0,1.02-.19,1.44-.56.12-.11.19-.27.19-.42,0-.33-.27-.57-.58-.57Zm-4.27,3.21c-.23.26-.44.33-.6.33-.7,0-.95-.98-.95-1.8,0-1.36.59-2.69,1.56-2.97l-.02.13c0,.19.13.41.22.57.18.39.47.9.47,1.63s-.26,1.63-.68,2.11Z"/>
    <path class="cls-1" d="m49.79,41.18c-.2,0-.39.1-.49.29-.65,1.13-1.2,1.94-1.68,2.48-.48.56-.78.69-.9.69h-.02s-.53-.15-.78-2.73c-.06-.67-.26-2.41-1.45-2.41-.84,0-1.57.9-2.4,2.49-.11-1.58-.46-3.29-1.58-3.29-.55,0-1.32.46-1.78,1.81,0-.15,0-.28,0-.39-.02-.4-.02-.68-.03-.8-.02-.3-.27-.54-.56-.54-.31,0-.58.26-.58.56v.03c.04.52.08,4.95.29,5.97.1.52.43.61.62.61.12,0,.46-.04.6-.51.09-.25.17-1.05.25-1.89.21-2.6.76-3.34.92-3.5.11-.12.19-.17.23-.2.07.09.24.38.37,1.21.27,1.62.17,3.34.28,3.7.08.5.48.54.58.54.2,0,.53-.09.63-.63.18-.83.59-1.86,1.06-2.7.54-.96.95-1.28,1.08-1.33.07.08.26.38.35,1.38.24,2.6.87,3.76,1.93,3.76s2.17-1.34,3.55-3.75c.05-.09.08-.18.08-.28,0-.3-.24-.58-.57-.58Z"/>
    <path class="cls-1" d="m57.28,41.16c-.21,0-.42.12-.52.32-.64,1.34-2.33,3.26-3.45,3.28-.14,0-.56,0-.95-.78-.14-.27-.22-.58-.26-.92,1.31-.38,1.93-1.2,2.2-1.68.23-.43.35-.87.35-1.27,0-.88-.58-1.57-1.38-1.57-1.38,0-2.32,1.99-2.32,4.03,0,.68.12,1.36.4,1.92.58,1.16,1.38,1.41,1.96,1.41h0c1.92-.02,3.87-2.69,4.46-3.91.03-.08.06-.16.06-.25,0-.31-.27-.57-.57-.57Zm-4.03-1.5h.03c.1,0,.25.1.25.44,0,.19-.05.44-.22.72-.15.28-.49.73-1.17,1.01.18-1.38.73-2.13,1.1-2.17Z"/>
    <path class="cls-1" d="m71.39,34.75l-2.67.07c.21-1.56.58-2.67,1.08-3.11.11-.09.25-.18.46-.18.16,0,.38.06.65.22.09.05.19.08.28.08.33,0,.57-.27.57-.57,0-.19-.09-.38-.28-.49-.47-.28-.89-.37-1.24-.37-.56,0-.96.25-1.2.46-.85.75-1.28,2.32-1.48,3.99l-1.89.04c-.3,0-.55.26-.55.56,0,.32.25.58.57.58l1.77-.04c-.04.63-.05,1.24-.05,1.8,0,4.43.97,9,1.68,10.71.09.21.3.35.52.35.31,0,.57-.26.57-.58,0-.07-.02-.15-.04-.22-.82-1.97-1.6-6.63-1.6-10.2,0-.67.02-1.31.06-1.9l2.8-.07c.3,0,.55-.26.55-.56,0-.32-.26-.58-.58-.58Z"/>
    <path class="cls-1" d="m80.09,41.14c-.13,0-.27.04-.37.15-.21.18-.43.27-.69.27-.68,0-1.53-.64-2-1.46-.09-.19-.15-.31-.16-.32-.1-.19-.29-.3-.5-.3-.05,0-.11,0-.16.03,0-.04.02-.09.02-.14,0-.31-.28-.57-.58-.57-.05,0-.1,0-.15.03-1.48.44-2.36,2.2-2.36,4.04s.83,2.94,2.09,2.94c1.55,0,2.41-1.94,2.41-3.52.51.29.97.41,1.42.41.53,0,1.02-.19,1.44-.56.12-.11.19-.27.19-.42,0-.33-.27-.57-.58-.57Zm-4.27,3.21c-.23.26-.44.33-.6.33-.7,0-.95-.98-.95-1.8,0-1.36.59-2.69,1.56-2.97l-.02.13c0,.19.13.41.22.57.18.39.47.9.47,1.63s-.26,1.63-.68,2.11Z"/>
    <path class="cls-1" d="m86.04,38.07c-.16-.04-.33-.06-.49-.06-.47,0-.93.17-1.32.51-.92.79-1.4,2.36-1.64,3.54-.06-.51-.09-1.02-.09-1.58,0-1.18.04-.84.04-1.27,0-.31-.26-.57-.58-.57-.29,0-.54.23-.56.53-.03.46-.04.9-.04,1.31,0,1.96.31,3.35.95,5.47.08.24.3.4.54.4.32,0,.57-.25.57-.56,0-.19-.03-.08-.03-.71,0-2.51.85-5.94,2.16-5.94.15,0,.25.04.36.04.31,0,.57-.27.57-.57,0-.25-.18-.49-.44-.55Z"/>
    <path class="cls-1" d="m101.54,38.93c-.98,0-1.87,1.04-2.56,2.23.13-1.84.14-1.34.17-1.94,0-.32-.26-.57-.56-.57-.28,0-.53.22-.57.51-.2,1.78-.32,3.7-.32,5.54,0,3.15.34,6.15,1.01,9.18.06.27.29.45.55.45.31,0,.58-.27.58-.57l-.02-.12c-.61-2.76-.94-5.49-.98-8.36.26.06.53.09.82.09,2.12,0,3.57-1.58,3.57-3.85,0-1.54-.73-2.6-1.68-2.6Zm.17,4.19c-.51.97-1.57,1.12-2.04,1.12-.33,0-.59-.06-.75-.12.15-.56.46-1.36.89-2.16.69-1.25,1.31-1.8,1.62-1.88.03,0,.05-.02.09-.02.06,0,.13.03.23.17.2.27.32.76.32,1.3s-.11,1.11-.37,1.59Z"/>
    <path class="cls-1" d="m112.13,41.16c-.21,0-.42.12-.52.32-.64,1.34-2.33,3.26-3.45,3.28-.14,0-.56,0-.95-.78-.14-.27-.21-.58-.26-.92,1.31-.38,1.93-1.2,2.2-1.68.23-.43.35-.87.35-1.27,0-.88-.58-1.57-1.38-1.57-1.38,0-2.32,1.99-2.32,4.03,0,.68.12,1.36.4,1.92.58,1.16,1.38,1.41,1.96,1.41h0c1.92-.02,3.87-2.69,4.46-3.91.03-.08.06-.16.06-.25,0-.31-.27-.57-.57-.57Zm-4.03-1.5h.03c.1,0,.25.1.25.44,0,.19-.05.44-.22.72-.15.28-.49.73-1.17,1.01.18-1.38.73-2.13,1.1-2.17Z"/>
    <path class="cls-1" d="m117.95,38.07c-.16-.04-.33-.06-.49-.06-.47,0-.93.17-1.32.51-.92.79-1.4,2.36-1.64,3.54-.06-.51-.09-1.02-.09-1.58,0-1.18.04-.84.04-1.27,0-.31-.26-.57-.58-.57-.29,0-.54.23-.56.53-.03.46-.04.9-.04,1.31,0,1.96.31,3.35.95,5.47.08.24.3.4.54.4.32,0,.57-.25.57-.56,0-.19-.03-.08-.03-.71,0-2.51.85-5.94,2.16-5.94.15,0,.25.04.36.04.31,0,.57-.27.57-.57,0-.25-.18-.49-.44-.55Z"/>
    <path class="cls-1" d="m126.55,41.12l-.13.02c-.83.21-2.1.68-3.35,1.32l-.27-.26c-.52-.48-1.35-1.26-1.35-1.75,0-.15.1-.49,1.25-.85.24-.08.4-.3.4-.54,0-.31-.24-.57-.57-.57-.05,0-.11,0-.17.03-1.5.46-2.03,1.17-2.03,1.94,0,.96.93,1.84,1.69,2.56,0,0,0,0,0,0-1.08.65-2.05,1.4-2.56,2.18-.33.51-.44.95-.44,1.31s.09.61.19.78c.4.78,1.28,1.06,1.99,1.06,1.77,0,3.27-1.56,3.27-3.14,0-.62-.22-1.23-.64-1.87,1.02-.5,2.1-.92,2.87-1.1.26-.07.43-.3.43-.55,0-.3-.24-.58-.58-.58Zm-3.47,4.97c-.63,1.04-1.55,1.13-1.88,1.13-.75,0-1.03-.4-1.03-.71,0-.24.12-.49.25-.68.4-.6,1.24-1.28,2.41-1.96.39.55.52,1,.52,1.36s-.13.64-.26.85Z"/>
    <path class="cls-1" d="m134.72,41.14c-.13,0-.27.04-.37.15-.21.18-.43.27-.69.27-.68,0-1.53-.64-2-1.46-.09-.19-.15-.31-.16-.32-.1-.19-.29-.3-.5-.3-.05,0-.11,0-.16.03,0-.04.02-.09.02-.14,0-.31-.28-.57-.58-.57-.05,0-.1,0-.15.03-1.48.44-2.36,2.2-2.36,4.04s.83,2.94,2.09,2.94c1.55,0,2.41-1.94,2.41-3.52.51.29.97.41,1.42.41.53,0,1.02-.19,1.44-.56.12-.11.19-.27.19-.42,0-.33-.27-.57-.58-.57Zm-4.27,3.21c-.23.26-.44.33-.6.33-.7,0-.95-.98-.95-1.8,0-1.36.59-2.69,1.56-2.97l-.02.13c0,.19.13.41.22.57.18.39.47.9.47,1.63s-.26,1.63-.68,2.11Z"/>
    <path class="cls-1" d="m144.55,41.14c-.21,0-.4.11-.51.3-1.49,2.7-2.14,2.75-2.2,2.75-.06-.02-.28-.22-.46-.96-.15-.61-.26-1.44-.3-2.46-.04-1.14-.51-1.93-1.23-2.09-.08-.02-.17-.03-.28-.03-.46,0-1.14.27-1.8,1.5-.22.42-.4.91-.55,1.43v-.28c0-1.7.06-1.31.06-1.87,0-.3-.26-.56-.57-.56-.29,0-.55.22-.57.53-.03.59-.06,1.21-.06,1.86,0,1.47.14,3.03.65,4.27.09.21.29.35.52.35s.54-.17.57-.54c.04-.95.22-3.3.94-4.65.36-.68.69-.89.81-.89.11,0,.34.32.37,1.02.13,3.22.82,4.51,1.93,4.51.93,0,1.92-1.06,3.17-3.34.04-.09.07-.18.07-.28,0-.32-.25-.57-.56-.57Z"/>
    <path class="cls-1" d="m154.71,41.15c-.21,0-.41.12-.51.33-.75,1.62-1.68,2.42-2.24,2.42s-1.02-.96-1.02-2.76c0-.42.06-1.17.06-1.28,0-.1-.04-.22-.11-.32-.65-.91-1.33-1.16-1.89-1.16-.12,0-.24.02-.35.03-1.48.28-2.59,2.15-2.91,3.4-.11.43-.16.86-.16,1.26,0,1.62.8,2.7,1.83,2.7,1.16,0,1.95-1.18,2.65-2.56.41,1.44,1.26,1.81,1.9,1.81,1.14,0,2.36-1.1,3.28-3.08.03-.08.05-.15.05-.23,0-.33-.28-.57-.58-.57Zm-6.01,2.19c-.52.92-1,1.3-1.3,1.3-.4,0-.7-.78-.7-1.57,0-.3.04-.64.13-.98.28-1.08,1.19-2.42,2.01-2.56.03,0,.08-.02.15-.02.19,0,.49.08.86.53,0,.36-.38,1.93-1.15,3.3Z"/>
    <path class="cls-1" d="m161.39,41.15c-.2,0-.39.1-.49.28-.79,1.37-1.49,2.34-2.07,2.89-.37.35-.63.46-.77.46-.15,0-.53-.24-.79-1.88-.12-.8-.18-1.79-.18-2.95,0-3.49.52-7.69.89-9.17,0-.04.02-.09.02-.14,0-.33-.27-.57-.58-.57-.25,0-.47.17-.54.42-.44,1.73-.93,6.09-.93,9.45,0,4.34.8,5.97,2.11,5.97,1.1,0,2.31-1.32,3.82-3.92.05-.09.08-.19.08-.28,0-.32-.26-.57-.57-.57Z"/>
    <path class="cls-1" d="m163.94,37.6c.4,0,.72-.34.72-.76s-.33-.76-.72-.76-.73.34-.73.76.33.76.73.76Z"/>
    <path class="cls-1" d="m167.57,41.26c-.21,0-.4.12-.51.33-.66,1.38-1.26,2.07-1.63,2.42-.31.28-.61.42-.83.42-.5,0-.89-.93-.89-2.36,0-.66.08-1.45.28-2.39l.02-.12c0-.32-.28-.56-.57-.56-.27,0-.51.18-.56.45-.2.95-.3,1.85-.3,2.63,0,1.85.61,3.48,2.03,3.48.43,0,.96-.16,1.58-.71.66-.58,1.3-1.52,1.9-2.77.03-.08.06-.16.06-.25,0-.32-.28-.57-.58-.57Z"/>
    <path class="cls-1" d="m177.25,41.03c-.18,0-.36.09-.47.25-1.15,1.67-2.51,2.01-3.75,2.6-.34-.47-.74-.81-1.18-1.01.77-.93,1.32-2.14,1.32-3,0-.68-.4-1.12-.98-1.12-.97,0-2.6,1.55-3.29,2.72-.06.09-.09.19-.09.29,0,.32.27.57.57.57.19,0,.38-.1.48-.28.27-.42.71-.95,1.19-1.38.51-.47.82-.66.99-.74,0,.22-.1.61-.36,1.14-.35.72-.89,1.38-1.44,1.81-.14.11-.22.28-.22.45,0,.3.24.58.57.58.15,0,.25-.07.46-.07.39,0,.71.22,1,.59-.8.52-1.5,1.24-2.33,2.81-.37.71-.77,1.68-.77,2.5,0,1.12.74,1.56,1.44,1.56,1.56,0,3.49-1.96,3.49-4.62,0-.64-.11-1.26-.31-1.81,1.22-.61,2.81-1.02,4.17-2.98.07-.09.09-.21.09-.32,0-.33-.27-.57-.56-.57Zm-5.26,8.03c-.58.81-1.28,1.13-1.63,1.13-.06,0-.11,0-.15-.03-.07-.03-.15-.12-.15-.42,0-1.08,1.27-3.21,1.94-3.83.17-.16.35-.3.53-.43.12.39.18.82.18,1.25,0,.87-.26,1.68-.73,2.33Z"/>
    <path class="cls-1" d="m184.76,41.16c-.22,0-.42.12-.52.32-.64,1.34-2.33,3.26-3.45,3.28-.14,0-.56,0-.95-.78-.14-.27-.22-.58-.26-.92,1.31-.38,1.93-1.2,2.2-1.68.23-.43.35-.87.35-1.27,0-.88-.58-1.57-1.38-1.57-1.38,0-2.32,1.99-2.32,4.03,0,.68.12,1.36.4,1.92.58,1.16,1.38,1.41,1.96,1.41h0c1.92-.02,3.87-2.69,4.46-3.91.03-.08.06-.16.06-.25,0-.31-.27-.57-.57-.57Zm-4.03-1.5h.03c.1,0,.25.1.25.44,0,.19-.05.44-.21.72-.15.28-.49.73-1.17,1.01.18-1.38.73-2.13,1.1-2.17Z"/>
    <path class="cls-1" d="m192.71,31.25v-.08c0-.33-.27-.57-.55-.57s-.52.2-.57.48c-.08.46-.15.9-.21,1.34-.34,2.11-.79,4.32-1.32,6.45-.35-.11-.67-.15-.95-.15-.42,0-.77.09-1.05.21-.88.36-1.56,1.19-1.89,2.28-.24.79-.35,1.53-.35,2.17,0,1.5.66,2.35,1.55,2.35,1.35,0,2.55-1.98,3.34-4.81,0,2.73.32,4.95.92,6.63.08.23.3.38.53.38.29,0,.57-.24.57-.57,0-.07,0-.13-.03-.19-.57-1.59-.85-3.71-.85-6.34,0-2.35.22-5.11.68-8.25.07-.45.14-.89.2-1.33Zm-3.09,9.31c-.86,3.11-1.9,4.03-2.27,4.03-.21,0-.4-.53-.4-1.21,0-1.03.35-2.91,1.55-3.4.19-.09.4-.12.6-.12s.45.03.68.12l-.15.58Z"/>
    <path class="cls-1" d="m211.8,41.04c-.13,0-.27.04-.37.13-.83.7-1.65,1.5-2.43,2.31-.09-1.79-.29-3.15-.31-3.27-.03-.27-.25-.46-.51-.48v-.08c0-.22-.12-.43-.33-.52-.41-.19-.83-.27-1.21-.27-.63,0-1.2.23-1.69.69-.86.8-1.32,2.16-1.32,3.37,0,1.51.72,2.67,1.93,2.67.94,0,1.67-.87,2.28-2.35.03.46.05.95.07,1.46-2.72,3.17-3.99,5.99-3.99,8.17,0,1.55.79,1.88,1.27,1.88.63,0,1.32-.5,1.94-1.44.48-.71,1.14-1.97,1.57-4,.26-1.22.34-2.65.34-4v-.21c.99-1.13,2.06-2.18,3.11-3.07.13-.11.2-.27.2-.43,0-.31-.26-.57-.57-.57Zm-4.89,1.46c-.54,1.44-1.06,1.94-1.34,1.94-.15,0-.46-.06-.66-.6-.09-.26-.14-.58-.14-.91,0-1.44.76-2.94,1.87-2.94.48,0,.67.19.93.22-.04.19-.28,1.26-.66,2.29Zm-.68,10.14c-.53.79-.93.96-1.02.97-.05-.06-.15-.28-.15-.76,0-.25.03-.58.09-.98.3-1.66,1.36-3.55,2.74-5.36-.09,2.56-.71,4.68-1.67,6.13Z"/>
    <path class="cls-1" d="m218.1,41.26c-.21,0-.4.12-.51.33-.66,1.38-1.26,2.07-1.63,2.42-.31.28-.61.42-.83.42-.5,0-.89-.93-.89-2.36,0-.66.08-1.45.28-2.39l.02-.12c0-.32-.28-.56-.57-.56-.27,0-.51.18-.56.45-.2.95-.3,1.85-.3,2.63,0,1.85.61,3.48,2.03,3.48.43,0,.96-.16,1.58-.71.66-.58,1.3-1.52,1.9-2.77.03-.08.06-.16.06-.25,0-.32-.28-.57-.58-.57Z"/>
    <path class="cls-1" d="m214.46,37.6c.4,0,.72-.34.72-.76s-.33-.76-.72-.76-.73.34-.73.76.33.76.73.76Z"/>
    <path class="cls-1" d="m227.46,38.86c0-1.16.03-2.33.11-3.46,1.43-.07,2.47-.09,3.22-.09,1.05,0,1.54.04,1.77.08.07.14.29.25.47.25.34,0,.59-.31.59-.64,0-.09-.02-.18-.06-.27-.18-.36-.61-.44-1-.49-.41-.04-.94-.07-1.67-.07-.85,0-1.93.03-3.23.08.09-1.06.23-2.08.4-3.03v-.11c0-.31-.25-.56-.55-.56-.28,0-.52.2-.56.47-.19,1.01-.34,2.11-.44,3.28-2.26.12-4.27.27-4.3.27-.16.01-.3.1-.39.22l-1.32.03c.21-1.56.58-2.67,1.08-3.11.11-.09.25-.18.46-.18.16,0,.38.06.65.22.09.05.19.08.28.08.33,0,.57-.27.57-.57,0-.19-.09-.38-.28-.49-.47-.28-.89-.37-1.24-.37-.56,0-.96.25-1.2.46-.85.75-1.28,2.32-1.48,3.99l-1.89.04c-.3,0-.55.26-.55.56,0,.32.25.58.57.58l1.77-.04c-.04.63-.05,1.24-.05,1.8,0,4.43.97,9,1.68,10.71.09.21.3.35.52.35.31,0,.57-.26.57-.58,0-.07-.02-.15-.04-.22-.82-1.97-1.6-6.63-1.6-10.2,0-.67.02-1.31.06-1.9l2.8-.07c.2,0,.36-.12.46-.28.77-.05,1.77-.11,2.77-.16-.08,1.15-.12,2.34-.12,3.53,0,4.12.49,7.87,1.31,10.2.08.23.3.38.53.38.31,0,.57-.22.57-.57,0-.06,0-.13-.03-.19-.82-2.3-1.24-6.08-1.24-9.95Z"/>
    <path class="cls-1" d="m237.98,41.12l-.13.02c-.83.21-2.1.68-3.35,1.32l-.27-.26c-.52-.48-1.35-1.26-1.35-1.75,0-.15.1-.49,1.25-.85.24-.08.4-.3.4-.54,0-.31-.24-.57-.57-.57-.05,0-.11,0-.17.03-1.5.46-2.03,1.17-2.03,1.94,0,.96.93,1.84,1.69,2.56,0,0,0,0,0,0-1.08.65-2.05,1.4-2.56,2.18-.33.51-.44.95-.44,1.31s.09.61.19.78c.4.78,1.28,1.06,1.99,1.06,1.77,0,3.27-1.56,3.27-3.14,0-.62-.22-1.23-.64-1.87,1.02-.5,2.1-.92,2.87-1.1.26-.07.43-.3.43-.55,0-.3-.24-.58-.58-.58Zm-3.47,4.97c-.63,1.04-1.55,1.13-1.88,1.13-.75,0-1.03-.4-1.03-.71,0-.24.12-.49.25-.68.4-.6,1.24-1.28,2.41-1.96.39.55.52,1,.52,1.36s-.13.64-.26.85Z"/>
  </g>
</svg>